<svg width="390" height="390" viewBox="0 0 390 390" fill="none" xmlns="http://www.w3.org/2000/svg">
<path d="M86.8543 33.1486C108.109 18.9467 131.953 9.0703 157.024 4.08322C182.096 -0.903819 207.904 -0.903819 232.976 4.08322C258.047 9.0703 281.891 18.9467 303.146 33.1486C324.4 47.3505 342.65 65.5997 356.851 86.8543C371.053 108.109 380.93 131.953 385.917 157.024C390.904 182.096 390.904 207.904 385.917 232.976C380.93 258.047 371.053 281.891 356.851 303.146C342.65 324.4 324.4 342.65 303.146 356.851C281.891 371.053 258.047 380.93 232.976 385.917C207.904 390.904 182.096 390.904 157.024 385.917C131.953 380.93 108.109 371.053 86.8543 356.851C65.5997 342.65 47.3505 324.4 33.1486 303.146C18.9467 281.891 9.0703 258.047 4.08322 232.976C-0.903819 207.904 -0.903819 182.096 4.08322 157.024C9.0703 131.953 18.9467 108.109 33.1486 86.8543C47.3505 65.5997 65.5997 47.3505 86.8543 33.1486Z" fill="#FACC15"/>
</svg>
